<mxfile host="app.diagrams.net" modified="2020-10-05T03:28:37.488Z" agent="5.0 (Windows NT 10.0; Win64; x64) AppleWebKit/537.36 (KHTML, like Gecko) Chrome/85.0.4183.121 Safari/537.36 Edg/85.0.564.68" etag="xg3vAh_grtClatF5C6Sr" version="13.7.5" type="github">
  <diagram id="qUk1JXyIrJDUUfIK3m7A" name="第 1 页">
    <mxGraphModel dx="813" dy="408" grid="1" gridSize="10" guides="1" tooltips="1" connect="1" arrows="1" fold="1" page="1" pageScale="1" pageWidth="827" pageHeight="1169" math="0" shadow="0">
      <root>
        <mxCell id="0" />
        <mxCell id="1" parent="0" />
        <mxCell id="QdlWFyoZ0IGShxXIJ1a4-1" value="" style="rounded=0;whiteSpace=wrap;html=1;fillColor=#dae8fc;strokeColor=#6c8ebf;" vertex="1" parent="1">
          <mxGeometry x="50" y="60" width="760" height="630" as="geometry" />
        </mxCell>
        <mxCell id="QdlWFyoZ0IGShxXIJ1a4-2" value="" style="rounded=0;whiteSpace=wrap;html=1;fillColor=#d5e8d4;strokeColor=#82b366;shadow=0;glass=0;" vertex="1" parent="1">
          <mxGeometry x="80" y="95" width="280" height="355" as="geometry" />
        </mxCell>
        <mxCell id="QdlWFyoZ0IGShxXIJ1a4-3" value="栈" style="rounded=0;whiteSpace=wrap;html=1;fillColor=#d5e8d4;strokeColor=#82b366;fontSize=16;" vertex="1" parent="1">
          <mxGeometry x="157.5" y="110" width="125" height="30" as="geometry" />
        </mxCell>
        <mxCell id="QdlWFyoZ0IGShxXIJ1a4-5" value="main[栈]&lt;br&gt;test(4) //退出程序" style="rounded=0;whiteSpace=wrap;html=1;fontSize=16;fillColor=#f5f5f5;strokeColor=#666666;align=left;spacingLeft=5;gradientColor=#b3b3b3;" vertex="1" parent="1">
          <mxGeometry x="105" y="380" width="235" height="50" as="geometry" />
        </mxCell>
        <mxCell id="QdlWFyoZ0IGShxXIJ1a4-7" value="" style="rounded=0;whiteSpace=wrap;html=1;shadow=0;glass=0;fontSize=16;fillColor=#ffe6cc;strokeColor=#d79b00;" vertex="1" parent="1">
          <mxGeometry x="400" y="95" width="380" height="155" as="geometry" />
        </mxCell>
        <mxCell id="QdlWFyoZ0IGShxXIJ1a4-8" value="堆" style="rounded=0;whiteSpace=wrap;html=1;fillColor=#ffe6cc;strokeColor=#d79b00;fontSize=16;" vertex="1" parent="1">
          <mxGeometry x="527.5" y="110" width="125" height="30" as="geometry" />
        </mxCell>
        <mxCell id="QdlWFyoZ0IGShxXIJ1a4-9" value="" style="rounded=0;whiteSpace=wrap;html=1;shadow=0;glass=0;fontSize=16;fillColor=#e1d5e7;strokeColor=#9673a6;" vertex="1" parent="1">
          <mxGeometry x="408" y="290" width="372" height="160" as="geometry" />
        </mxCell>
        <mxCell id="QdlWFyoZ0IGShxXIJ1a4-10" value="代码区 / 常量" style="rounded=0;whiteSpace=wrap;html=1;fillColor=#e1d5e7;strokeColor=#9673a6;fontSize=16;" vertex="1" parent="1">
          <mxGeometry x="531.5" y="300" width="125" height="30" as="geometry" />
        </mxCell>
        <mxCell id="QdlWFyoZ0IGShxXIJ1a4-11" value="" style="rounded=0;whiteSpace=wrap;html=1;shadow=0;glass=0;fontSize=16;fillColor=#647687;strokeColor=#314354;fontColor=#ffffff;" vertex="1" parent="1">
          <mxGeometry x="80" y="480" width="700" height="180" as="geometry" />
        </mxCell>
        <mxCell id="QdlWFyoZ0IGShxXIJ1a4-12" value="Console" style="rounded=0;whiteSpace=wrap;html=1;shadow=0;glass=0;fontSize=16;fillColor=#647687;fontColor=#ffffff;strokeColor=none;" vertex="1" parent="1">
          <mxGeometry x="328" y="490" width="171.75" height="40" as="geometry" />
        </mxCell>
        <mxCell id="QdlWFyoZ0IGShxXIJ1a4-13" value="n=4&lt;br&gt;if(n&amp;gt;2) ... test(3)&lt;br&gt;sout" style="rounded=0;whiteSpace=wrap;html=1;fontSize=16;fillColor=#f5f5f5;align=left;strokeColor=#666666;spacingLeft=5;gradientColor=#b3b3b3;" vertex="1" parent="1">
          <mxGeometry x="105" y="310" width="235" height="60" as="geometry" />
        </mxCell>
      </root>
    </mxGraphModel>
  </diagram>
</mxfile>
